<?xml version="1.0" encoding="UTF-8"?>
<svg id="NUR" xmlns="http://www.w3.org/2000/svg" version="1.1" viewBox="0 0 200 200">
  <!-- Generator: Adobe Illustrator 30.5.1, SVG Export Plug-In . SVG Version: 2.1.4 Build 3)  -->
  <defs>
    <style>
      .st0 {
        fill: #ec661a;
      }

      .st1 {
        fill: #4ec0e1;
      }

      .st2 {
        fill: #fff;
      }

      .st3 {
        fill: #4c9ed8;
      }

      .st4 {
        fill: #231815;
      }

      .st5 {
        fill: #016836;
      }
    </style>
  </defs>
  <rect class="st2" width="200" height="200"/>
  <g>
    <polygon class="st4" points="10.93 131.23 53.48 39.57 90.06 106.22 120.4 137.16 10.93 131.23"/>
    <polygon class="st1" points="18.3 129.69 53.91 50.76 86.01 109.23 108.2 131.86 18.3 129.69"/>
    <polygon class="st4" points="18.3 131.86 18.38 121.19 55.37 79.04 98.56 129.08 86.58 149.73 18.3 131.86"/>
    <polygon class="st5" points="20.64 127.7 55.33 88.18 91.22 129.77 83.63 142.85 20.64 127.7"/>
    <path class="st4" d="M89.1,160.43c-38.02,0-78.43-9.64-78.43-27.49,0-6.03,8.11-6.03,10.78-6.03,5.65,0,13.7,1.06,22.21,2.17,10.01,1.31,21.35,2.8,30.6,2.8h0c12.39,0,16.43-2.72,17.65-4.99,1.72-3.23-.21-8.96-5.31-16.77-4.05-6.22-4.76-9.82-3.09-12.96,1.41-2.63,4.39-3.97,8.87-3.97,11.1,0,30.94,8.06,44.55,14.96,11.43,5.79,30.59,16.72,30.59,24.79,0,17.86-40.41,27.49-78.43,27.49Z"/>
    <path class="st3" d="M89.1,154.43c-41.99,0-71.46-10.96-72.41-21,.53-.2,1.83-.53,4.75-.53,5.26,0,13.12,1.03,21.43,2.12,10.19,1.34,21.74,2.85,31.38,2.85h0c12.68,0,19.97-2.6,22.94-8.17,2.91-5.46,1.07-12.96-5.62-22.94-3.52-5.25-2.78-6.78-2.78-6.79.12-.22.99-.79,3.57-.79,8.08,0,24.79,5.7,41.58,14.19,18.57,9.39,27.42,17.23,27.56,19.57,0,10.16-29.75,21.49-72.43,21.49Z"/>
    <g id="NUR1" data-name="NUR">
      <path class="st0" d="M92.78,86.25h-8.87l5.96-38.11h9.69l8.08,16.65c.35.73.69,1.49,1,2.26.31.77.6,1.59.88,2.45.03-.99.19-2.54.48-4.64l.05-.37,2.48-16.36h8.75l-5.89,38.11h-8.78l-8.46-17.6c-.42-.88-.8-1.78-1.14-2.7-.34-.92-.65-1.87-.93-2.84-.06,1.16-.14,2.16-.22,3.02-.08.85-.18,1.6-.29,2.23l-2.79,17.9Z"/>
      <path class="st0" d="M126.88,48.13h8.97l-3.61,23.42c-.1.65-.17,1.21-.22,1.66-.05.46-.07.82-.07,1.1,0,1.51.4,2.65,1.2,3.41.8.76,2.01,1.14,3.63,1.14,1.78,0,3.12-.52,4.02-1.55.9-1.03,1.55-2.85,1.95-5.46l3.63-23.71h8.78l-3.75,24.27c-.77,4.93-2.48,8.63-5.15,11.1-2.66,2.47-6.28,3.7-10.87,3.7s-6.21-1.03-8.76-3.1c-2.56-2.07-3.84-4.88-3.84-8.45,0-.39.06-1.04.17-1.94.11-.9.29-2.14.53-3.72l3.39-21.85Z"/>
      <path class="st0" d="M165.38,86.25h-10.58l5.96-38.11h14.52c4.86,0,8.41.88,10.66,2.62,2.25,1.75,3.38,4.5,3.38,8.24,0,2.51-.65,4.63-1.94,6.36s-3.29,3.18-6,4.33l5.7,16.55h-11.23l-4.57-14.41h-3.7l-2.21,14.41ZM168.79,64.05h4.71c1.73,0,3.02-.38,3.86-1.15.84-.76,1.26-1.94,1.26-3.52,0-1.33-.39-2.34-1.17-3.03-.78-.68-1.94-1.03-3.5-1.03h-3.85l-1.32,8.72Z"/>
    </g>
  </g>
</svg>
