<?xml version="1.0" encoding="UTF-8"?>
<svg id="NUR" xmlns="http://www.w3.org/2000/svg" version="1.1" viewBox="0 0 894.85 131.44">
  <!-- Generator: Adobe Illustrator 30.5.1, SVG Export Plug-In . SVG Version: 2.1.4 Build 3)  -->
  <defs>
    <style>
      .st0 {
        fill: #ec661a;
      }

      .st1 {
        fill: #4ec0e1;
      }

      .st2 {
        fill: #4c9ed8;
      }

      .st3 {
        fill: #231815;
      }

      .st4 {
        fill: #016836;
      }
    </style>
  </defs>
  <g id="image">
    <polygon class="st3" points=".26 98.11 42.8 6.45 79.39 73.11 109.73 104.04 .26 98.11"/>
    <polygon class="st1" points="7.62 96.57 43.24 17.64 75.34 76.12 97.53 98.75 7.62 96.57"/>
    <polygon class="st3" points="7.62 98.75 7.7 88.07 44.7 45.92 87.88 95.97 75.9 116.62 7.62 98.75"/>
    <polygon class="st4" points="9.97 94.58 44.66 55.06 80.55 96.66 72.96 109.74 9.97 94.58"/>
    <path class="st3" d="M78.43,127.32C40.41,127.32,0,117.68,0,99.82c0-6.03,8.11-6.03,10.78-6.03,5.65,0,13.7,1.06,22.21,2.17,10.01,1.31,21.35,2.8,30.6,2.8h0c12.39,0,16.43-2.72,17.65-4.99,1.72-3.23-.21-8.96-5.31-16.77-4.05-6.22-4.76-9.82-3.09-12.96,1.41-2.63,4.39-3.97,8.87-3.97,11.1,0,30.94,8.06,44.55,14.96,11.43,5.79,30.59,16.72,30.59,24.79,0,17.86-40.41,27.49-78.43,27.49Z"/>
    <path class="st2" d="M78.43,121.32c-41.99,0-71.46-10.96-72.41-21,.53-.2,1.83-.53,4.75-.53,5.26,0,13.12,1.03,21.43,2.12,10.19,1.34,21.74,2.85,31.38,2.85h0c12.68,0,19.97-2.6,22.94-8.17,2.91-5.46,1.07-12.96-5.62-22.94-3.52-5.25-2.78-6.78-2.78-6.79.12-.22.99-.79,3.57-.79,8.08,0,24.79,5.7,41.58,14.19,18.57,9.39,27.42,17.23,27.56,19.57,0,10.16-29.75,21.49-72.43,21.49Z"/>
  </g>
  <g id="NUR1" data-name="NUR">
    <path class="st0" d="M82.11,53.13h-8.87l5.96-38.11h9.69l8.08,16.65c.35.73.69,1.49,1,2.26.31.77.6,1.59.88,2.45.03-.99.19-2.54.48-4.64l.05-.37,2.48-16.36h8.75l-5.89,38.11h-8.78l-8.46-17.6c-.42-.88-.8-1.78-1.14-2.7-.34-.92-.65-1.87-.93-2.84-.06,1.16-.14,2.16-.22,3.02-.08.85-.18,1.6-.29,2.23l-2.79,17.9Z"/>
    <path class="st0" d="M116.21,15.02h8.97l-3.61,23.42c-.1.65-.17,1.21-.22,1.66-.05.46-.07.82-.07,1.1,0,1.51.4,2.65,1.2,3.41.8.76,2.01,1.14,3.63,1.14,1.78,0,3.12-.52,4.02-1.55.9-1.03,1.55-2.85,1.95-5.46l3.63-23.71h8.78l-3.75,24.27c-.77,4.93-2.48,8.63-5.15,11.1-2.66,2.47-6.28,3.7-10.87,3.7s-6.21-1.03-8.76-3.1c-2.56-2.07-3.84-4.88-3.84-8.45,0-.39.06-1.04.17-1.94.11-.9.29-2.14.53-3.72l3.39-21.85Z"/>
    <path class="st0" d="M154.7,53.13h-10.58l5.96-38.11h14.52c4.86,0,8.41.88,10.66,2.62,2.25,1.75,3.38,4.5,3.38,8.24,0,2.51-.65,4.63-1.94,6.36s-3.29,3.18-6,4.33l5.7,16.55h-11.23l-4.57-14.41h-3.7l-2.21,14.41ZM158.12,30.94h4.71c1.73,0,3.02-.38,3.86-1.15.84-.76,1.26-1.94,1.26-3.52,0-1.33-.39-2.34-1.17-3.03-.78-.68-1.94-1.03-3.5-1.03h-3.85l-1.32,8.72Z"/>
  </g>
  <g id="jpn">
    <path class="st0" d="M242.78,5.81c-.21,2.9-.7,7.31-1.26,13.11,6.1.2,12.75,5.51,16.4,15.92,3.5,10.11,3.5,23.03.28,34.54,1.4,1.6,3.08,3.9,4.13,5.51.77,1.1.84,2.3.07,3.5l-1.4,2.3c-.77,1.4-1.75,1.3-2.52-.2-1.47-2.9-2.59-4.91-2.8-5.41-2.66,6.51-7.64,9.91-13.11,8.61-2.52-.6-5.26-2.7-6.31-7.11-1.05-4.2-.21-9.11,2.03-12.21,4.49-6.21,11.63-3.3,15.28.3,1.47-8.01,1.75-17.62-.7-25.63-2.66-8.51-7.64-12.91-12.12-13.42-1.68,12.81-4.63,25.13-8.76,36.74.42,1.4.98,3,1.4,4.3.49,1.3.42,2.4-.35,3.4l-.98,1.4c-.98,1.3-1.89,1-2.45-.6l-.49-1.5c-1.68,4.81-3.71,8.31-6.87,10.21-6.94,4.21-10.72-6.51-10.37-16.52.42-10.91,3.57-21.02,8.13-28.83-.84-5.31-1.54-11.01-2.73-20.22-.21-1.6.35-2.6,1.47-2.9l2.24-.4c1.19-.3,1.89.5,1.96,2.2.63,7.11.98,11.31,1.61,15.72,2.8-4.4,7.22-7.81,11.21-9.21.56-6.51.91-11.51,1.05-14.72.14-1.7.77-2.5,1.96-2.2l2.52.5c1.12.3,1.61,1.2,1.47,2.8ZM216.98,63.08c-.14,4.31.28,10.21,3.43,9.91,2.24-.2,4.49-5.21,5.96-9.71-2.03-6.91-3.85-13.82-4.98-21.32-2.52,6.01-4.21,14.22-4.42,21.12ZM229.46,55.87c2.24-8.51,4.42-18.32,5.68-29.23-3.22,1.2-6.87,4.4-9.6,9.41.84,6.01,2.17,11.71,3.92,19.82ZM240.74,74.09c.42,1.7,1.33,3.2,2.73,3.5,3.15.8,6.24-1.3,8.13-7.01-2.52-3.2-7.71-6.91-10.37-2.3-.77,1.4-.91,4.1-.49,5.81Z"/>
    <path class="st0" d="M320.52,74.09c.84,1,.98,2.2.35,3.5l-1.75,3.4c-.7,1.4-1.61,1.5-2.52.3-6.17-8.11-10.65-11.71-11.28-12.31,0,1.8-.21,3.7-.63,5.51-2.03,9.01-8.69,11.31-13.67,11.01-4.56-.3-12.9-4.71-11.07-16.32,1.4-9.21,8.97-10.21,13.53-10.21,2.38,0,4.77.4,6.31,1.1v-21.42h-17.52c-1.12,0-1.75-.9-1.75-2.5v-.1c0-1.6.63-2.5,1.75-2.5h17.45v-14.52h-19.41c-1.12,0-1.75-.9-1.75-2.5v-.1c0-1.6.63-2.5,1.75-2.5h19.41V4.01c0-1.6.63-2.5,1.75-2.6h2.52c1.12,0,1.75.9,1.75,2.5v10.01h13.95c1.12,0,1.75.9,1.75,2.5v.1c0,1.6-.63,2.5-1.75,2.5h-14.02v14.52h12.12c1.12,0,1.75.9,1.75,2.5v.1c0,1.6-.63,2.5-1.75,2.5h-12.19v23.33c6.52,3.5,12.33,9.31,14.93,12.11ZM284.85,70.48c-.49,5.91,3.22,7.81,6.31,7.91,3.36.1,6.8-.9,8.06-6.91.35-1.5.35-3.3.35-4.91-1.68-1.1-3.92-1.9-6.17-2-2.8-.2-8.13.5-8.55,5.91Z"/>
    <path class="st0" d="M338.16,28.04c7.57-4.91,16.4-9.01,24.53-10.01,8.27-1.1,19.06,2.4,22.29,18.02,1.61,7.71.56,16.12-1.61,22.73-6.31,19.02-21.03,21.92-33.71,22.02-1.12,0-1.75-.9-1.75-2.5-.07-1.6.56-2.4,1.68-2.4,7.22-.3,13.88-1.6,19.62-6.71,6.31-5.51,11.84-17.82,10.09-30.83-1.68-12.31-9.53-16.02-16.26-14.52-7.15,1.5-13.95,5.41-22.43,11.91-1.12.8-1.96.4-2.38-1.1l-.98-3.3c-.42-1.5-.07-2.7.91-3.3ZM382.66,17.12c0,1.7-.7,2.5-1.89,2.5h-.14c-1.26,0-1.82-.8-1.82-2.5V6.01c0-1.7.56-2.5,1.82-2.5h.14c1.19,0,1.89.8,1.89,2.5v11.11ZM388.69,17.12c0,1.7-.56,2.5-1.82,2.5h-.14c-1.19,0-1.89-.8-1.89-2.5V6.01c0-1.7.7-2.5,1.89-2.5h.14c1.26,0,1.82.8,1.82,2.5v11.11Z"/>
    <path class="st0" d="M425.34,83.5c-1.12.1-1.75-.5-1.89-1.9-.14-1.4.42-2.2,1.54-2.5,6.17-1.5,11.35-5.21,15.21-12.41,3.57-6.81,5.26-17.12,4.49-27.03-.77-9.61-4.07-18.52-9.32-22.63-.56-.5-4.98-2.7-7.78-2.5-.21,10.71-1.33,21.72-3.71,31.94-1.96,8.41-7.15,27.23-15.21,25.23-8.69-2.1-8.48-23.03-6.17-33.64,4.7-22.02,20.89-35.04,34.69-26.43,6.87,4.31,12.27,14.32,13.74,26.63,1.33,11.31-.56,24.83-6.59,33.54-5.12,7.41-11.56,10.61-18.99,11.71ZM409.64,64.28c3.57,1.6,7.78-14.02,9.32-20.32,2.17-9.01,3.29-18.72,3.71-28.63-6.24,2.9-12.26,12.31-14.72,25.33-1.12,6.11-2.38,21.72,1.68,23.63Z"/>
    <path class="st0" d="M469.4,3.91h40.93c1.26,0,1.96,1,1.96,2.8,0,19.42.21,35.14.49,46.95.28,11.31.56,18.72.77,26.53.14-6.51.35-10.11.56-14.12.07-2.1.98-2.9,2.31-2.2l1.05.5c1.12.5,1.61,1.6,1.54,3.3-.07,5.11-.42,9.21-.91,12.61s-.98,5.61-1.89,7.31c-.28.6-1.47,1.6-2.87,1.6-2.31,0-3.78-2-4.56-6.31-.98-5.51-1.4-11.91-1.75-24.53-.35-12.91-.49-26.83-.49-49.56h-33.43v32.94c0,23.53-1.19,35.34-4.83,46.05-.63,1.8-1.68,2-2.73.5l-1.26-1.8c-.84-1.2-1.12-2-.91-2.6,2.94-9.21,4.06-20.72,4.06-45.05V6.71c0-1.8.7-2.8,1.96-2.8ZM497.65,67.58c-.49-1.7-.14-3,1.12-3.6l1.12-.7c1.19-.6,2.1-.1,2.59,1.5,2.03,6.61,3.71,12.61,5.19,18.22.49,1.7.07,3-1.12,3.6l-1.26.7c-1.19.7-2.1.2-2.59-1.6-.7-2.7-1.12-4.5-1.47-5.51-9.46,2.5-18.5,4.1-26.77,4.81-1.26.2-1.96-.8-2.03-2.6-.07-1.6.63-2.4,1.89-2.5,3.57-.3,7.78-.9,12.62-1.7v-20.62h-6.31v2.1c0,1.8-.7,2.8-1.96,2.8h-1.61c-1.26,0-1.96-1-1.96-2.8v-25.33c0-1.8.7-2.8,1.96-2.8h9.88v-10.91c-3.08.4-6.59.6-10.3.8-1.26.1-2.03-.9-2.1-2.7-.07-1.3.63-2,1.89-2.1,8.27-.5,17.03-1.4,26.28-3,1.26-.3,2.03.6,2.17,2.4.14,1.3-.49,2.1-1.82,2.4-4.13.7-7.5,1.2-10.37,1.5v11.61h9.81c1.26,0,1.96,1,1.96,2.8v20.42c0,1.8-.7,2.8-1.96,2.8h-9.81v19.52l7.29-1.5-2.31-8.01ZM486.92,36.15h-6.31v16.82h6.31v-16.82ZM492.67,36.15v16.82h6.24v-16.82h-6.24Z"/>
    <path class="st0" d="M533.4,32.54c7.85-4.71,13.46-7.61,19.48-7.71,5.54-.1,11.14,3.7,13.46,13.21,1.89,7.81,1.61,16.82-.77,25.33-4.35,15.42-15.21,22.02-24.67,25.13-1.05.3-1.82-.3-1.96-1.7-.21-1.5.21-2.5,1.26-2.9,8.48-3.6,17.03-10.61,19.62-23.83,1.68-8.71,2.17-21.42-1.82-26.93-3.08-4.4-7.64-2.8-11.42-1-3.43,1.6-7.43,4.4-11.35,7.31-1.05.8-1.89.3-2.31-1.3l-.56-2.4c-.35-1.5,0-2.6,1.05-3.2ZM558.77,16.52c-7.29-1.3-12.9-5.21-17.45-10.71-.84-1-.98-2.1-.35-3.4.56-1.2,1.33-1.4,2.31-.6,5.19,4.2,10.02,6.21,16.12,7.21,1.19.1,1.75,1.1,1.61,2.7l-.28,2.6c-.14,1.6-.84,2.3-1.96,2.2Z"/>
    <path class="st0" d="M614.59,19.33c-2.24-.2-4.27-.5-6.1-.6-2.31,0-4.49.3-6.45,1.2-2.8,1.3-3.99,3.8-4.77,7.21-.35,1.6-.49,3.5-.63,5.71l-.7,18.82c8.41-8.61,20.18-15.82,29.22-5.11,1.75,2,3.22,5.51,3.78,8.51,1.26,6.61.28,13.82-2.38,19.22-2.45,4.91-6.1,7.81-9.04,9.41-5.96,3.2-12.4,3.7-19.69,2.7-1.05-.1-1.61-.9-1.61-2.4-.07-1.4.56-2.2,1.75-2.2,5.33.1,9.67-.4,13.81-2.6,4.21-2.1,9.18-6.31,10.58-13.82,1.19-6.51-.49-13.82-3.92-16.62-3.29-2.7-7.29-1.6-10.93.4-4.77,2.6-8.83,7.61-12.97,13.52-.7,1.1-1.4,1.3-2.31.9l-1.47-.6c-.98-.5-1.4-1.4-1.33-2.9.28-6.31,1.12-23.73,1.26-26.23.21-3.1.7-6.21,1.4-8.61,1.68-5.61,5.47-8.71,9.04-10.01,1.26-.5,2.87-.7,3.43-.7-3.71-2.4-6.24-5.21-9.11-9.01-.77-1.1-.91-2.2-.28-3.5.56-1.2,1.4-1.3,2.31-.3,5.26,5.61,10.65,8.51,17.59,9.71,1.12.1,1.68,1.1,1.61,2.7l-.21,2.9c-.07,1.6-.77,2.4-1.89,2.3Z"/>
    <path class="st0" d="M669.77,83.5c-1.12.1-1.75-.5-1.89-1.9-.14-1.4.42-2.2,1.54-2.5,6.17-1.5,11.35-5.21,15.21-12.41,3.57-6.81,5.26-17.12,4.49-27.03-.77-9.61-4.07-18.52-9.32-22.63-.56-.5-4.98-2.7-7.78-2.5-.21,10.71-1.33,21.72-3.71,31.94-1.96,8.41-7.15,27.23-15.21,25.23-8.69-2.1-8.48-23.03-6.17-33.64,4.7-22.02,20.88-35.04,34.69-26.43,6.87,4.31,12.26,14.32,13.74,26.63,1.33,11.31-.56,24.83-6.59,33.54-5.12,7.41-11.56,10.61-18.99,11.71ZM654.07,64.28c3.57,1.6,7.78-14.02,9.32-20.32,2.17-9.01,3.29-18.72,3.71-28.63-6.24,2.9-12.26,12.31-14.72,25.33-1.12,6.11-2.38,21.72,1.68,23.63Z"/>
    <path class="st0" d="M756.05,68.08c0,1.4-.7,2.2-1.96,2.2h-15.42v11.21h19.9c1.26,0,1.96,1,1.96,2.8,0,1.4-.7,2.1-1.96,2.1h-47.31c-1.26,0-1.96-1-1.96-2.8,0-1.4.7-2.1,1.96-2.1h21.31v-11.21h-14.65c-1.26,0-1.96-1-1.96-2.8,0-1,.7-1.6,1.96-1.6h14.65v-9.71h-13.6c-1.47,3.7-3.29,7.41-5.54,11.21-.91,1.5-1.96,1.4-2.8-.2l-.63-1.2c-.63-1.3-.63-2.6.14-3.9,2.87-5.21,5.54-12.31,7.99-20.92h-2.66c-1.26,0-1.96-1-1.96-2.8V7.21c0-1.8.7-2.8,1.96-2.8h38.9c1.26,0,1.96,1,1.96,2.8v31.13c0,1.8-.7,2.8-1.96,2.8h-15.7v10.41h17.8c1.26,0,1.96,1,1.96,2.8,0,1.2-.7,1.8-1.96,1.8h-17.8v9.71h15.42c1.26,0,1.96.8,1.96,2.2ZM719.61,20.43h30.63v-11.11h-30.63v11.11ZM719.61,24.83v11.91h30.63v-11.91h-30.63ZM732.57,41.15h-8.83c-.63,2.4-1.54,5.81-3.08,10.41h11.91v-10.41Z"/>
    <path class="st0" d="M792.28,4.61c2.66,4.4,4.91,7.51,7.15,9.91.91,1,1.26,2.1.91,3.7l-.14.7c-.42,1.9-1.47,2.4-2.66,1.3-4.13-3.9-6.94-8.71-9.11-12.71-2.03,4.3-4.7,9.11-7.99,14.22h15.56c1.26,0,1.96,1,1.96,2.8,0,1.4-.7,2.1-1.96,2.1h-5.33v13.62h6.59c1.26,0,1.96,1,1.96,2.8,0,1.5-.7,2.3-1.96,2.3h-6.59v29.33c1.89-.9,4.13-2.1,6.8-3.8,1.33-.8,2.24-.1,2.45,1.9.21,1.5-.21,2.5-1.33,3.2-6.66,4.21-13.95,7.81-21.45,10.51-1.26.5-2.1-.4-2.31-2.2-.14-1.7.42-2.7,1.61-3.1,2.73-1,5.54-2.2,8.55-3.6v-32.24h-7.64c-1.26,0-1.96-1-1.96-2.8,0-1.5.7-2.3,1.96-2.3h7.64v-13.62h-4.21c-1.26,0-1.96-1-1.96-2.8v.3l-1.82,2.5c-1.12,1.6-2.24,1.1-2.59-1.1l-.21-1.5c-.28-1.5,0-2.6.77-3.7,3.08-4.3,6.24-9.71,9.53-16.32.56-1.3,1.26-1.8,2.38-1.8h2.52c1.05,0,1.89.7,2.87,2.4ZM778.9,68.58c-.7-4.4-1.4-8.81-2.1-12.81-.35-1.7.14-2.9,1.26-3.5l1.05-.5c1.19-.7,2.1,0,2.45,1.8.77,4,1.47,8.41,2.24,13.21.21,1.7-.21,2.9-1.4,3.5l-1.12.5c-1.26.6-2.1-.2-2.38-2.2ZM799.08,53.86c-.56,3.4-1.19,7.21-2.03,11.71-.35,1.8-1.26,2.5-2.45,1.9l-.91-.4c-1.26-.5-1.68-1.7-1.33-3.5.63-3.6,1.33-7.21,1.89-10.71.28-1.8,1.12-2.5,2.38-2.1l.98.4c1.19.4,1.68,1.4,1.47,2.7ZM800.41,42.75c0-1.8.7-2.7,1.96-2.7h8.62v-21.52h-4c-.84,5.11-1.96,10.21-3.36,15.72-.49,1.9-1.54,2.3-2.66,1.2l-1.12-1.1c-.91-.9-1.19-2.1-.77-3.7,1.82-7.31,3.36-15.92,4.55-25.63.21-1.9,1.05-2.7,2.31-2.2l1.19.4c1.26.4,1.75,1.5,1.54,3.3-.21,1.8-.49,4-.77,6.71h3.08V3.71c0-1.8.7-2.8,1.96-2.8h2.03c1.26,0,1.96,1,1.96,2.8v9.51h8.69c1.26,0,1.96,1,1.96,2.8,0,1.6-.7,2.5-1.96,2.5h-8.69v21.52h9.46c1.26,0,1.96,1,1.96,2.8s-.7,2.7-1.96,2.7h-9.25c.91,16.32,4.56,28.13,10.44,34.94.84,1,1.19,2.1.77,3.7l-.28,1.2c-.42,1.9-1.47,2.5-2.59,1.3-5.47-5.81-9.53-14.62-11.77-25.03-2.8,10.21-7.57,19.12-13.95,25.03-1.12,1-2.17.5-2.59-1.4l-.21-1c-.42-1.6-.21-2.7.56-3.4,7.29-7.11,11.98-18.82,13.18-35.34h-8.34c-1.26,0-1.96-1-1.96-2.8Z"/>
    <path class="st0" d="M842.01,41.55c0-1.6.7-2.5,1.96-2.5h9.74c1.26,0,1.96,1,1.96,2.8v28.13c2.24,7.01,4.56,9.71,9.53,11.01,2.8.7,6.52,1.1,11.49,1.1h16.12c1.33,0,1.96,1,1.89,2.9-.07,1.6-.7,2.4-1.96,2.4h-16.26c-13.32,0-20.04-2.9-23.48-10.01-1.75,3.1-4.21,6.81-7.36,10.71-1.05,1.3-2.1,1-2.73-.9l-.35-1.1c-.49-1.5-.28-2.7.56-3.8,2.24-2.8,4.42-6.11,6.73-10.11v-27.83h-5.89c-1.26,0-1.96-1-1.96-2.8ZM847.89,6.11c2.66,4.81,5.05,9.11,7.01,13.01.63,1.3.56,2.6-.21,3.9l-.63,1c-.91,1.4-1.96,1.3-2.8-.3-2.94-5.71-5.33-10.11-7.22-13.52-.7-1.3-.7-2.6.14-3.9l.56-.9c.91-1.4,2.1-1.2,3.15.7ZM855.32,13.52c0-1.5.7-2.3,1.96-2.3h8.41c-.84-2.7-1.54-5.01-2.17-6.81-.56-1.8-.21-3.1,1.12-3.7l1.05-.5c1.12-.5,1.96-.1,2.59,1.4,1.19,3.3,2.24,6.41,3.15,9.61h7.5c.77-2.2,1.68-5.21,2.8-9.11.49-1.7,1.33-2.3,2.52-1.8l1.33.5c1.33.5,1.75,1.8,1.26,3.6-.63,2-1.33,4.3-2.17,6.81h8.2c1.26,0,1.96,1,1.96,2.8,0,1.5-.7,2.3-1.96,2.3h-14.58c-.77,4.6-1.26,7.71-1.4,9.11h12.9c1.26,0,1.96,1,1.96,2.8v41.35c0,1.8-.7,2.8-1.96,2.8h-28.66c-1.26,0-1.96-1-1.96-2.8V28.24c0-1.8.7-2.8,1.96-2.8h9.6c.35-1.9.91-4.91,1.4-9.11h-14.86c-1.26,0-1.96-1-1.96-2.8ZM864.99,39.55h20.88v-9.51h-20.88v9.51ZM864.99,43.75v9.81h20.88v-9.81h-20.88ZM864.99,57.77v10.21h20.88v-10.21h-20.88Z"/>
  </g>
  <g id="eng">
    <path class="st3" d="M214.28,130.98h-1.02c-.61,0-.95-.46-.95-1.28v-30.21c0-.82.34-1.28.95-1.28h1.32c.54,0,.88.27,1.12.96l8.87,24.63v-24.31c0-.82.34-1.28.95-1.28h1.02c.61,0,.95.46.95,1.28v30.21c0,.82-.34,1.28-.95,1.28h-1.32c-.54,0-.88-.27-1.12-.96l-8.87-24.63v24.31c0,.82-.34,1.28-.95,1.28Z"/>
    <path class="st3" d="M235.81,98.21h1.08c.61,0,.95.46.95,1.28v20.51c0,6.32,1.52,8.97,4.47,8.97s4.47-2.66,4.47-8.97v-20.51c0-.82.34-1.28.95-1.28h1.02c.61,0,.95.46.95,1.28v20.37c0,7.46-2.54,11.58-7.42,11.58s-7.42-4.12-7.42-11.58v-20.37c0-.82.34-1.28.95-1.28Z"/>
    <path class="st3" d="M259.4,130.98h-.98c-.61,0-.95-.46-.95-1.28v-30.21c0-.82.34-1.28.95-1.28h1.25c.54,0,.88.32,1.08.96l6.06,18.17,6.03-18.17c.2-.64.54-.96,1.08-.96h1.35c.61,0,.95.46.95,1.28v30.21c0,.82-.34,1.28-.95,1.28h-1.05c-.61,0-.95-.46-.95-1.28v-23.99l-4.74,14.37c-.2.64-.54.96-1.08.96h-1.29c-.54,0-.88-.32-1.08-.96l-4.74-14.37v23.99c0,.82-.34,1.28-.95,1.28Z"/>
    <path class="st3" d="M284.93,130.98h-1.02c-.68,0-.98-.55-.81-1.46l6.53-30.21c.17-.73.51-1.1,1.08-1.1h1.56c.58,0,.91.37,1.08,1.1l6.53,30.21c.17.92-.14,1.46-.81,1.46h-1.08c-.58,0-.91-.37-1.05-1.1l-1.76-8.65h-7.45l-1.76,8.65c-.14.73-.47,1.1-1.05,1.1ZM288.18,118.94h6.57l-3.28-16.3-3.28,16.3Z"/>
    <path class="st3" d="M305.95,99.35c0-.73.34-1.14.95-1.14h11.85c.61,0,.95.46.95,1.28v.32c0,.6-.07,1.01-.27,1.56l-10.53,27.33,9.85-.14c.61,0,.95.46.95,1.28,0,.73-.34,1.14-.95,1.14h-11.85c-.61,0-.95-.46-.95-1.28v-.32c0-.59.07-1.01.27-1.56l10.36-27.19h-9.68c-.61,0-.95-.46-.95-1.28Z"/>
    <path class="st3" d="M327.58,98.21h1.08c.61,0,.95.46.95,1.28v20.51c0,6.32,1.52,8.97,4.47,8.97s4.47-2.66,4.47-8.97v-20.51c0-.82.34-1.28.95-1.28h1.02c.61,0,.95.46.95,1.28v20.37c0,7.46-2.54,11.58-7.42,11.58s-7.42-4.12-7.42-11.58v-20.37c0-.82.34-1.28.95-1.28Z"/>
    <path class="st3" d="M367.73,130.98h-1.02c-.61,0-.95-.46-.95-1.28v-30.21c0-.82.34-1.28.95-1.28h1.32c.54,0,.88.27,1.12.96l8.87,24.63v-24.31c0-.82.34-1.28.95-1.28h1.02c.61,0,.95.46.95,1.28v30.21c0,.82-.34,1.28-.95,1.28h-1.32c-.54,0-.88-.27-1.12-.96l-8.87-24.63v24.31c0,.82-.34,1.28-.95,1.28Z"/>
    <path class="st3" d="M396.71,131.44c-5.86,0-9.21-6.36-9.21-16.85s3.35-16.85,9.21-16.85,9.21,6.36,9.21,16.85c0,5.26-.68,9.16-2.4,12.41-1.46,2.75-3.86,4.44-6.81,4.44ZM396.71,100.17c-3.86,0-6.2,4.85-6.2,14.42s2.34,14.42,6.2,14.42,6.2-4.85,6.2-14.42c0-4.76-.61-8.61-1.59-10.71-1.25-2.7-2.67-3.71-4.6-3.71Z"/>
    <path class="st3" d="M429.3,129.7v-30.21c0-.82.34-1.28.95-1.28h1.02c.61,0,.95.46.95,1.28v12.45l7.45-12.96c.3-.55.64-.78,1.15-.78h.81c.78,0,1.05.69.54,1.56l-8.16,14.15,8.5,15.52c.47.87.2,1.56-.58,1.56h-.81c-.51,0-.85-.23-1.15-.78l-7.75-14.33v13.82c0,.82-.34,1.28-.95,1.28h-1.02c-.61,0-.95-.46-.95-1.28Z"/>
    <path class="st3" d="M450.46,130.98h-1.02c-.68,0-.98-.55-.81-1.46l6.54-30.21c.17-.73.51-1.1,1.08-1.1h1.56c.57,0,.91.37,1.08,1.1l6.54,30.21c.17.92-.13,1.46-.81,1.46h-1.08c-.57,0-.91-.37-1.05-1.1l-1.76-8.65h-7.45l-1.76,8.65c-.13.73-.47,1.1-1.05,1.1ZM453.71,118.94h6.57l-3.29-16.3-3.28,16.3Z"/>
    <path class="st3" d="M471.48,99.35c0-.73.34-1.14.95-1.14h11.85c.61,0,.95.46.95,1.28v.32c0,.6-.07,1.01-.27,1.56l-10.53,27.33,9.85-.14c.61,0,.95.46.95,1.28,0,.73-.34,1.14-.95,1.14h-11.85c-.61,0-.95-.46-.95-1.28v-.32c0-.59.07-1.01.27-1.56l10.36-27.19h-9.68c-.61,0-.95-.46-.95-1.28Z"/>
    <path class="st3" d="M493.22,98.21h10.73c.61,0,.95.46.95,1.28,0,.73-.34,1.14-.95,1.14h-8.73v11.54h8.19c.61,0,.95.46.95,1.28,0,.64-.34,1.01-.95,1.01h-8.19v14.1h8.73c.61,0,.95.46.95,1.28,0,.73-.34,1.14-.95,1.14h-10.73c-.61,0-.95-.46-.95-1.28v-30.21c0-.82.34-1.28.95-1.28Z"/>
    <path class="st3" d="M529.61,98.21h1.08c.61,0,.95.46.95,1.28v20.51c0,6.32,1.52,8.97,4.47,8.97s4.47-2.66,4.47-8.97v-20.51c0-.82.34-1.28.95-1.28h1.02c.61,0,.95.46.95,1.28v20.37c0,7.46-2.54,11.58-7.42,11.58s-7.42-4.12-7.42-11.58v-20.37c0-.82.34-1.28.95-1.28Z"/>
    <path class="st3" d="M552.79,130.98h-1.05c-.61,0-.95-.46-.95-1.28v-30.03c0-.78.27-1.24.85-1.37,1.46-.37,3.05-.55,4.74-.55,5.48,0,8.26,3.39,8.26,8.74,0,4.12-1.42,7.6-4.37,8.61l-.95.32c1.66,1.05,2.71,3.52,3.39,6.27l1.96,7.83c.24.92-.07,1.46-.78,1.46h-.98c-.54,0-.88-.32-1.08-1.05l-2.06-8.42c-1.19-4.81-1.49-5.08-4.17-5.08h-1.86v13.28c0,.82-.34,1.28-.95,1.28ZM555.6,114.14c4.2,0,6.1-2.24,6.1-7.32,0-4.71-1.83-6.73-5.52-6.73-.85,0-1.62.09-2.44.32v13.73h1.86Z"/>
    <path class="st3" d="M572.19,130.98h-1.02c-.68,0-.98-.55-.81-1.46l6.54-30.21c.17-.73.51-1.1,1.08-1.1h1.56c.57,0,.91.37,1.08,1.1l6.54,30.21c.17.92-.13,1.46-.81,1.46h-1.08c-.57,0-.91-.37-1.05-1.1l-1.76-8.65h-7.45l-1.76,8.65c-.13.73-.47,1.1-1.05,1.1ZM575.44,118.94h6.57l-3.29-16.3-3.28,16.3Z"/>
    <path class="st3" d="M595.65,130.98h-1.02c-.61,0-.95-.46-.95-1.28v-30.21c0-.82.34-1.28.95-1.28h1.32c.54,0,.88.27,1.12.96l8.87,24.63v-24.31c0-.82.34-1.28.95-1.28h1.02c.61,0,.95.46.95,1.28v30.21c0,.82-.34,1.28-.95,1.28h-1.32c-.54,0-.88-.27-1.12-.96l-8.87-24.63v24.31c0,.82-.34,1.28-.95,1.28Z"/>
    <path class="st3" d="M624.63,131.44c-5.86,0-9.21-6.36-9.21-16.85s3.35-16.85,9.21-16.85,9.21,6.36,9.21,16.85c0,5.26-.68,9.16-2.4,12.41-1.46,2.75-3.86,4.44-6.8,4.44ZM624.63,100.17c-3.86,0-6.2,4.85-6.2,14.42s2.34,14.42,6.2,14.42,6.2-4.85,6.2-14.42c0-4.76-.61-8.61-1.59-10.71-1.25-2.7-2.67-3.71-4.6-3.71Z"/>
    <path class="st3" d="M640.37,129.7v-30.21c0-.82.34-1.28.95-1.28h1.05c.61,0,.95.46.95,1.28v12.68h8.94v-12.68c0-.82.34-1.28.95-1.28h1.05c.61,0,.95.46.95,1.28v30.21c0,.82-.34,1.28-.95,1.28h-1.05c-.61,0-.95-.46-.95-1.28v-15.24h-8.94v15.24c0,.82-.34,1.28-.95,1.28h-1.05c-.61,0-.95-.46-.95-1.28Z"/>
    <path class="st3" d="M670.97,131.44c-5.86,0-9.21-6.36-9.21-16.85s3.35-16.85,9.21-16.85,9.21,6.36,9.21,16.85c0,5.26-.68,9.16-2.4,12.41-1.46,2.75-3.86,4.44-6.81,4.44ZM670.97,100.17c-3.86,0-6.2,4.85-6.2,14.42s2.34,14.42,6.2,14.42,6.2-4.85,6.2-14.42c0-4.76-.61-8.61-1.59-10.71-1.25-2.7-2.68-3.71-4.61-3.71Z"/>
    <path class="st3" d="M687.12,126.86c1.49,1.56,2.84,2.15,4.33,2.15,2.64,0,4.03-1.92,4.03-6.41,0-3.71-1.22-5.86-3.83-7.32-4.13-2.33-6.03-5.58-6.03-9.71,0-4.71,2.23-7.83,6.09-7.83,1.93,0,3.83.6,5.35,1.6.47.27.68.78.68,1.51v.37c0,1.05-.47,1.37-1.15.82-1.69-1.37-3.15-1.97-4.71-1.97-2,0-3.35,1.56-3.35,5.49,0,3.34,1.29,5.68,3.42,6.82,4.88,2.7,6.5,5.49,6.5,10.21,0,5.58-2.3,8.83-6.87,8.83-1.83,0-3.62-.64-5.01-1.79-.44-.37-.61-.82-.61-1.56v-.55c0-1.1.51-1.37,1.15-.69Z"/>
    <path class="st3" d="M705.16,129.7v-30.21c0-.82.34-1.28.95-1.28h1.05c.61,0,.95.46.95,1.28v12.68h8.94v-12.68c0-.82.34-1.28.95-1.28h1.05c.61,0,.95.46.95,1.28v30.21c0,.82-.34,1.28-.95,1.28h-1.05c-.61,0-.95-.46-.95-1.28v-15.24h-8.94v15.24c0,.82-.34,1.28-.95,1.28h-1.05c-.61,0-.95-.46-.95-1.28Z"/>
    <path class="st3" d="M730.58,99.49v30.21c0,.82-.34,1.28-.95,1.28h-1.22c-.61,0-.95-.46-.95-1.28v-30.21c0-.82.34-1.28.95-1.28h1.22c.61,0,.95.46.95,1.28Z"/>
    <path class="st3" d="M757.09,130.98h-1.05c-.61,0-.95-.46-.95-1.28v-30.03c0-.78.27-1.24.85-1.37,1.46-.37,3.05-.55,4.74-.55,5.49,0,8.26,3.39,8.26,8.74,0,4.12-1.42,7.6-4.37,8.61l-.95.32c1.66,1.05,2.71,3.52,3.38,6.27l1.96,7.83c.24.92-.07,1.46-.78,1.46h-.98c-.54,0-.88-.32-1.08-1.05l-2.07-8.42c-1.19-4.81-1.49-5.08-4.16-5.08h-1.86v13.28c0,.82-.34,1.28-.95,1.28ZM759.9,114.14c4.2,0,6.09-2.24,6.09-7.32,0-4.71-1.83-6.73-5.52-6.73-.85,0-1.62.09-2.44.32v13.73h1.86Z"/>
    <path class="st3" d="M776.49,130.98h-1.02c-.68,0-.98-.55-.81-1.46l6.54-30.21c.17-.73.51-1.1,1.08-1.1h1.56c.58,0,.91.37,1.08,1.1l6.54,30.21c.17.92-.14,1.46-.81,1.46h-1.08c-.58,0-.91-.37-1.05-1.1l-1.76-8.65h-7.45l-1.76,8.65c-.14.73-.47,1.1-1.05,1.1ZM779.74,118.94h6.57l-3.29-16.3-3.29,16.3Z"/>
    <path class="st3" d="M800.86,99.49v30.21c0,.82-.34,1.28-.95,1.28h-1.22c-.61,0-.95-.46-.95-1.28v-30.21c0-.82.34-1.28.95-1.28h1.22c.61,0,.95.46.95,1.28Z"/>
    <path class="st3" d="M808.31,129.7v-30.21c0-.82.34-1.28.95-1.28h1.19c.61,0,.95.46.95,1.28v29.02h8.87c.61,0,.95.46.95,1.28,0,.78-.34,1.19-.95,1.19h-11c-.61,0-.95-.46-.95-1.28Z"/>
    <path class="st3" d="M831.7,129.84l-4.03-30.26c-.14-.87.17-1.37.81-1.37h1.05c.54,0,.85.41.95,1.19l3.15,25.36,3.28-25.41c.1-.78.41-1.14.95-1.14h1.93c.54,0,.85.37.95,1.14l3.35,25.41,3.12-25.36c.1-.78.41-1.19.95-1.19h.98c.68,0,.95.5.85,1.37l-4.06,30.26c-.1.78-.44,1.14-.98,1.14h-1.86c-.54,0-.88-.37-.98-1.14l-3.29-25.5-3.29,25.5c-.1.78-.41,1.14-.98,1.14h-1.86c-.54,0-.88-.37-.98-1.14Z"/>
    <path class="st3" d="M857.93,130.98h-1.02c-.68,0-.98-.55-.81-1.46l6.54-30.21c.17-.73.51-1.1,1.08-1.1h1.56c.57,0,.91.37,1.08,1.1l6.54,30.21c.17.92-.13,1.46-.81,1.46h-1.08c-.57,0-.91-.37-1.05-1.1l-1.76-8.65h-7.45l-1.76,8.65c-.13.73-.47,1.1-1.05,1.1ZM861.18,118.94h6.57l-3.29-16.3-3.28,16.3Z"/>
    <path class="st3" d="M879.29,98.21h1.08c.54,0,.88.27,1.12.96l4.94,14.28,4.94-14.28c.24-.69.58-.96,1.12-.96h1.02c.74,0,1.02.64.71,1.51l-6.3,17.12v12.86c0,.82-.34,1.28-.95,1.28h-1.15c-.61,0-.95-.46-.95-1.28v-12.86l-6.3-17.12c-.3-.87-.04-1.51.71-1.51Z"/>
  </g>
</svg>
